# xmcd CD database file
#
# Track frame offsets:
#	150
#	10907
#	27042
#	46067
#	63270
#	89937
#	109770
#	132812
#	155177
#	171982
#	199590
#	217615
#	243680
#
# Disc length: 3508 seconds
#
# Revision: 0
# Processed by: cddbd v1.5PL3 Copyright (c) Steve Scherf et al.
# Submitted via: CDex 1.50beta10
#
DISCID=ae0db20d
DTITLE=D≒SIRE - 異窓からの風景 -失われた終末の情景-
DYEAR=1900
DGENRE=Rock
TTITLE0=想刻 -Re:mind-
TTITLE1=DREAMS BURN DφWN
TTITLE2=Cloudy
TTITLE3=存在
TTITLE4=静夢
TTITLE5=Leave Me...
TTITLE6=絆
TTITLE7=C.U.R.S.E
TTITLE8=絶望-Despair-
TTITLE9=祈-PRAY-
TTITLE10=断章-Piece of Memories-
TTITLE11=Nostalgia-追憶-
TTITLE12=浄刻-Re:call-
EXTD=
EXTT0=
EXTT1=
EXTT2=
EXTT3=
EXTT4=
EXTT5=
EXTT6=
EXTT7=
EXTT8=
EXTT9=
EXTT10=
EXTT11=
EXTT12=
PLAYORDER=
